<!-- Regenerate the PNG with: pnpm assets -->
<svg xmlns="http://www.w3.org/2000/svg" width="1200" height="320" viewBox="0 0 1200 320">
  <defs>
    <linearGradient id="card" x1="0" y1="0" x2="1" y2="1">
      <stop offset="0" stop-color="#fff9f0"/>
      <stop offset="1" stop-color="#ffeef7"/>
    </linearGradient>
    <linearGradient id="rule" x1="0" y1="0" x2="1" y2="0">
      <stop offset="0" stop-color="#f07cc1"/>
      <stop offset="1" stop-color="#f07cc1" stop-opacity="0"/>
    </linearGradient>
  </defs>

  <rect width="1200" height="320" rx="28" fill="url(#card)"/>
  <circle cx="1105" cy="52" r="150" fill="#f07cc1" opacity="0.07"/>
  <circle cx="60" cy="300" r="120" fill="#f07cc1" opacity="0.05"/>

  <g transform="translate(96 88) scale(1.44)">
    <path d="M9 54 C9 24 28 9 50 9 C72 9 91 24 91 54 Z" fill="#f07cc1" stroke="#2b2b38" stroke-width="3.6" stroke-linejoin="round"/>
    <ellipse cx="31" cy="35" rx="9" ry="7" fill="#fff6e8"/>
    <ellipse cx="55" cy="25" rx="7" ry="5.5" fill="#fff6e8"/>
    <ellipse cx="72" cy="42" rx="6.5" ry="5" fill="#fff6e8"/>
    <path d="M33 54 h34 v18 a17 17 0 0 1 -34 0 Z" fill="#fff6e8" stroke="#2b2b38" stroke-width="3.6" stroke-linejoin="round"/>
    <ellipse cx="43" cy="63" rx="3.4" ry="4.4" fill="#2b2b38"/>
    <ellipse cx="60" cy="63" rx="3.4" ry="4.4" fill="#2b2b38"/>
    <path d="M46 73 q5 4 10 0" fill="none" stroke="#2b2b38" stroke-width="3" stroke-linecap="round"/>
  </g>

  <text x="290" y="150" font-family="Helvetica Neue, Helvetica, Arial, sans-serif"
        font-size="92" font-weight="700" letter-spacing="-2" fill="#2b2b38">aiciba</text>
  <rect x="292" y="176" width="150" height="5" rx="2.5" fill="url(#rule)"/>
  <text x="290" y="224" font-family="Helvetica Neue, Helvetica, Arial, sans-serif"
        font-size="30" font-weight="500" fill="#5a5a6b">A dictionary between any two languages.</text>
  <text x="290" y="266" font-family="Helvetica Neue, Helvetica, Arial, sans-serif"
        font-size="22" font-weight="500" fill="#9a8a95">Terminal &#183; Alfred &#183; answers in about half a second</text>
</svg>
